<svg width="180" height="43" viewBox="0 0 180 43" fill="none" xmlns="http://www.w3.org/2000/svg">
<path d="M42.9212 3H56.0912L59.3012 6.24V13.59L56.0612 16.86H47.0012V24H42.9212V3ZM54.2312 13.44L55.2812 12.39V7.47L54.2312 6.42H47.0012V13.44H54.2312ZM62.0157 5.94V4.02L63.3957 2.64H65.4957L66.8757 4.02V5.94L65.4957 7.32H63.3957L62.0157 5.94ZM62.4657 9.06H66.4257V24H62.4657V9.06ZM70.3396 2.58H74.2996V14.55H76.9096L80.7196 9.06H85.0996L80.1196 16.26L85.3996 24H81.0196L76.8196 17.91H74.2996V24H70.3396V2.58ZM86.3251 21.24V17.82L89.0851 15.06H96.6751V13.17L95.7451 12.24H91.2451L90.3451 13.17V14.01H86.4451V12.3L89.6551 9.06H97.3651L100.575 12.3V24H97.0051V21.87L94.7851 24H89.0851L86.3251 21.24ZM94.5151 20.94L96.6751 18.87V17.88H91.0351L90.2251 18.69V20.19L90.9751 20.94H94.5151ZM103.731 20.94V12.12L106.761 9.06H114.981L118.071 12.18V14.94H114.111V13.47L113.061 12.42H108.741L107.691 13.47V19.59L108.741 20.64H113.061L114.111 19.59V18.12H118.071V20.88L114.981 24H106.761L103.731 20.94ZM120.759 2.58H124.719V11.37L127.029 9.06H131.799L135.129 12.39V24H131.169V13.47L130.149 12.42H127.569L124.719 15.3V24H120.759V2.58ZM138.422 20.85V9.06H142.382V19.62L143.402 20.64H145.802L148.742 17.7V9.06H152.702V24H149.042V21.45L146.462 24H141.572L138.422 20.85ZM155.697 22.71V20.79L156.987 19.5H159.177L160.437 20.82V22.68L159.177 24H156.987L155.697 22.71ZM177.477 24H173.517V12.42H167.847V24H163.887V12.42H161.187V9.06H163.887V6.15L166.917 3.12H172.557V6.42H168.687L167.847 7.26V9.06H177.477V24Z" fill="url(#paint0_linear_298_1565)"/>
<path d="M44.712 35.184H46.764C47.568 35.184 48.12 35.532 48.12 36.408C48.12 37.296 47.472 37.536 46.728 37.536H44.712V35.184ZM42.828 39H46.98C48.528 39 50.004 38.256 50.004 36.516C50.004 35.448 49.476 34.644 48.432 34.344C49.176 33.984 49.596 33.396 49.596 32.556C49.596 30.96 48.492 30.432 46.86 30.432H42.828V39ZM44.712 31.896H46.476C47.148 31.896 47.772 32.064 47.772 32.88C47.772 33.6 47.28 33.9 46.62 33.9H44.712V31.896ZM56.9772 36.312C57.0972 34.404 56.0772 32.628 53.9652 32.628C52.0812 32.628 50.7972 34.044 50.7972 35.904C50.7972 37.824 52.0092 39.168 53.9652 39.168C55.3692 39.168 56.3892 38.544 56.8692 37.08H55.3692C55.2612 37.464 54.7092 37.884 54.0252 37.884C53.0772 37.884 52.5492 37.392 52.5012 36.312H56.9772ZM52.5012 35.232C52.5252 34.752 52.8372 33.912 53.9172 33.912C54.7452 33.912 55.1172 34.368 55.2732 35.232H52.5012ZM66.9797 32.796H65.2157L63.8597 37.044H63.8357L62.4317 32.796H60.6077L62.7917 38.616C62.9837 39.108 62.7917 39.72 62.2037 39.78C61.8677 39.792 61.5317 39.744 61.2077 39.72V41.124C61.5557 41.16 61.9037 41.184 62.2517 41.184C63.4277 41.184 64.0157 40.776 64.3877 39.78L66.9797 32.796ZM67.3583 35.904C67.3583 37.872 68.6183 39.168 70.5623 39.168C72.5183 39.168 73.7783 37.872 73.7783 35.904C73.7783 33.924 72.5183 32.628 70.5623 32.628C68.6183 32.628 67.3583 33.924 67.3583 35.904ZM69.0623 35.904C69.0623 34.908 69.4103 33.912 70.5623 33.912C71.7263 33.912 72.0743 34.908 72.0743 35.904C72.0743 36.888 71.7263 37.884 70.5623 37.884C69.4103 37.884 69.0623 36.888 69.0623 35.904ZM80.7063 32.796H79.0023V36.048C79.0023 37.308 78.6063 37.824 77.6823 37.824C76.8903 37.824 76.5903 37.32 76.5903 36.3V32.796H74.8863V36.612C74.8863 38.148 75.3423 39.168 77.1543 39.168C77.8743 39.168 78.6183 38.832 79.0503 38.136H79.0863V39H80.7063V32.796ZM81.9996 39H83.7036V36.204C83.7036 35.112 84.1356 34.212 85.3836 34.212C85.5876 34.212 85.8396 34.236 85.9956 34.272V32.688C85.8876 32.652 85.7436 32.628 85.6236 32.628C84.7956 32.628 83.9556 33.168 83.6436 33.948H83.6196V32.796H81.9996V39ZM89.8115 35.904C89.8115 37.872 91.0715 39.168 93.0155 39.168C94.9715 39.168 96.2315 37.872 96.2315 35.904C96.2315 33.924 94.9715 32.628 93.0155 32.628C91.0715 32.628 89.8115 33.924 89.8115 35.904ZM91.5155 35.904C91.5155 34.908 91.8635 33.912 93.0155 33.912C94.1795 33.912 94.5275 34.908 94.5275 35.904C94.5275 36.888 94.1795 37.884 93.0155 37.884C91.8635 37.884 91.5155 36.888 91.5155 35.904ZM106.387 32.796H104.635L103.495 36.996H103.471L102.415 32.796H100.759L99.7274 37.008H99.7034L98.5634 32.796H96.7634L98.7314 39H100.495L101.551 34.836H101.575L102.679 39H104.431L106.387 32.796ZM107.113 39H108.817V35.748C108.817 34.488 109.213 33.972 110.137 33.972C110.929 33.972 111.229 34.476 111.229 35.496V39H112.933V35.184C112.933 33.648 112.477 32.628 110.665 32.628C109.945 32.628 109.201 32.964 108.769 33.66H108.733V32.796H107.113V39ZM117.566 39H119.186V38.208H119.21C119.582 38.892 120.338 39.168 121.25 39.168C122.486 39.168 123.818 38.172 123.818 35.892C123.818 33.624 122.486 32.628 121.25 32.628C120.482 32.628 119.714 32.916 119.294 33.552H119.27V30.432H117.566V39ZM122.114 35.904C122.114 36.936 121.67 37.884 120.662 37.884C119.654 37.884 119.21 36.936 119.21 35.904C119.21 34.86 119.654 33.912 120.662 33.912C121.67 33.912 122.114 34.86 122.114 35.904ZM128.766 36.6C128.766 36.972 128.718 38.028 127.386 38.028C126.834 38.028 126.342 37.872 126.342 37.236C126.342 36.612 126.822 36.432 127.35 36.324C127.878 36.228 128.478 36.216 128.766 35.964V36.6ZM126.534 34.704C126.594 34.032 127.014 33.768 127.662 33.768C128.262 33.768 128.766 33.876 128.766 34.608C128.766 35.304 127.794 35.268 126.75 35.424C125.694 35.568 124.638 35.904 124.638 37.308C124.638 38.58 125.574 39.168 126.75 39.168C127.506 39.168 128.298 38.964 128.838 38.4C128.85 38.604 128.898 38.808 128.958 39H130.686C130.53 38.748 130.47 38.184 130.47 37.62V34.392C130.47 32.904 128.982 32.628 127.746 32.628C126.354 32.628 124.926 33.108 124.83 34.704H126.534ZM131.793 39H133.497V35.748C133.497 34.488 133.893 33.972 134.817 33.972C135.609 33.972 135.909 34.476 135.909 35.496V39H137.613V35.184C137.613 33.648 137.157 32.628 135.345 32.628C134.625 32.628 133.881 32.964 133.449 33.66H133.413V32.796H131.793V39ZM139.062 39H140.766V36.864L141.426 36.228L143.13 39H145.194L142.59 35.076L144.93 32.796H142.914L140.766 35.028V30.432H139.062V39Z" fill="#EE9A04"/>
<g filter="url(#filter0_d_298_1565)">
<path d="M14.1974 33.8093L14.2224 33.8326C12.5353 35.6421 10.8807 37.3967 9.73654 38.5849C8.86802 39.3469 7.52152 39.9339 6.32241 39.0013C5.35563 38.2519 5.08166 37.1852 5.08749 36.3466L14.1974 33.8093Z" fill="#FF2F13"/>
<path d="M9.38874 15.5856C9.34211 15.8496 9.36293 16.216 9.56528 16.4708C9.76763 16.7256 10.154 16.8797 10.8768 16.699L15.7898 14.9095C16.0219 14.8312 16.2638 14.7857 16.5084 14.7746C16.756 14.7575 17.0037 14.8063 17.2262 14.9161C17.3402 14.979 17.4389 15.0662 17.5153 15.1716C17.5917 15.2769 17.644 15.3978 17.6684 15.5257C17.7359 15.8238 17.7092 16.2227 17.5502 16.7514V16.7556L13.5948 26.082C13.5438 26.2159 13.5105 26.3559 13.4957 26.4984C13.4778 26.6248 13.4978 26.7538 13.5531 26.8689C13.5849 26.9222 13.6302 26.9662 13.6845 26.9963C13.7387 27.0265 13.8 27.0417 13.8621 27.0404C14.0228 27.0513 14.2468 27.0055 14.5566 26.8739L11.3264 29.2706L12.9511 33.1892L5.28263 35.2618C5.51579 34.7289 8.48858 27.8232 9.94583 24.4365C10.2922 23.7704 10.562 22.3797 8.8633 22.1466L3.6172 24.0618C2.93688 24.2425 1.67698 24.2034 2.07668 22.6046L3.63136 18.8266C4.89292 18.7216 7.77244 17.9306 9.39374 15.579L9.38874 15.5856Z" fill="url(#paint1_linear_298_1565)"/>
<path d="M30.9294 5.69306C34.6766 11.8551 33.0112 18.6834 28.0149 21.7228C25.0171 23.1384 23.3101 23.638 20.4372 27.0105C19.3913 28.238 16.7733 31.0992 14.2227 33.833L14.1977 33.8096L12.0743 29.9375L15.6966 27.2312L19.0008 23.9262C20.3106 22.3848 21.434 21.4105 22.6364 20.6586C23.5016 20.1182 24.4193 19.6968 25.3011 19.2921C25.5118 19.1947 25.7349 19.0423 25.9398 18.9457C28.6045 17.197 30.1034 12.687 27.8134 8.9115C26.9607 7.50588 24.5658 6.16355 22.6381 5.8721L22.6331 5.89791C21.7214 5.73935 20.7895 5.73626 19.8768 5.88875C18.4296 6.42419 14.9721 7.67825 13.1735 8.29696C12.8088 8.41377 12.4839 8.62972 12.235 8.92066C12.1204 9.09217 12.0296 9.27846 11.9652 9.47442V9.47442L9.39544 15.5699C7.77414 17.9198 4.89878 18.7109 3.63306 18.8175L8.36537 7.31519C8.53191 6.53827 9.42292 4.79207 11.6546 4.02597C13.8863 3.25987 17.7467 1.84759 19.3988 1.23638C21.9911 0.669299 27.9316 0.763396 30.9294 5.69306Z" fill="url(#paint2_linear_298_1565)"/>
<path d="M10.4934 12.9495C8.49491 15.2144 6.09392 15.3921 5.12242 15.1978L3.62354 18.8201C6.55469 18.5869 8.57818 16.8216 9.4109 15.5309L10.4934 12.9495Z" fill="#C5210E"/>
<path d="M22.6375 5.87205C24.5652 6.1635 26.9601 7.50583 27.8128 8.91145C30.1028 12.687 28.6039 17.197 25.9392 18.9457C25.7343 19.0423 25.5112 19.1955 25.3005 19.2921C24.4203 19.6968 23.5027 20.1181 22.6358 20.6585C21.4334 21.408 20.31 22.3848 19.0002 23.9261L15.6951 27.2312L13.0337 30.02L14.2828 33.7672C14.2828 33.7672 7.74598 40.8453 7.66271 40.9286C7.57944 41.0119 7.34959 41.0179 7.20472 40.9702C3.105 39.6198 5.15281 35.5935 5.28038 35.2577L11.1601 33.0178L11.3267 29.2706L14.5543 26.8698L14.571 26.8631L17.8469 23.5314C19.1584 21.9884 20.2842 21.0108 21.4908 20.2563C22.3585 19.7151 23.2787 19.2921 24.1555 18.8882L24.1722 18.9257L24.7975 18.6367L24.1605 18.8865C24.3687 18.7908 24.5769 18.6958 24.7775 18.6009C27.5613 16.8256 29.1909 12.6054 26.7128 8.52508C25.8667 7.13111 24.611 6.39499 23.2578 6.04192C23.0472 5.98696 22.6932 5.90714 22.485 5.87134L22.6375 5.87205Z" fill="#C5210E"/>
</g>
<defs>
<filter id="filter0_d_298_1565" x="0.157787" y="0.709124" width="32.9106" height="41.9394" filterUnits="userSpaceOnUse" color-interpolation-filters="sRGB">
<feFlood flood-opacity="0" result="BackgroundImageFix"/>
<feColorMatrix in="SourceAlpha" type="matrix" values="0 0 0 0 0 0 0 0 0 0 0 0 0 0 0 0 0 0 127 0" result="hardAlpha"/>
<feOffset dx="-0.872627" dy="0.67871"/>
<feGaussianBlur stdDeviation="0.484793"/>
<feComposite in2="hardAlpha" operator="out"/>
<feColorMatrix type="matrix" values="0 0 0 0 0 0 0 0 0 0 0 0 0 0 0 0 0 0 0.5 0"/>
<feBlend mode="normal" in2="BackgroundImageFix" result="effect1_dropShadow_298_1565"/>
<feBlend mode="normal" in="SourceGraphic" in2="effect1_dropShadow_298_1565" result="shape"/>
</filter>
<linearGradient id="paint0_linear_298_1565" x1="82.9712" y1="1" x2="107.651" y2="80.2213" gradientUnits="userSpaceOnUse">
<stop stop-color="#FFCC01"/>
<stop offset="0.979167" stop-color="#C5210E"/>
</linearGradient>
<linearGradient id="paint1_linear_298_1565" x1="16.0124" y1="15.7846" x2="-0.470034" y2="32.0815" gradientUnits="userSpaceOnUse">
<stop stop-color="#FEE50F"/>
<stop offset="0.763927" stop-color="#FF2F13"/>
</linearGradient>
<linearGradient id="paint2_linear_298_1565" x1="29.8127" y1="2.62379" x2="3.66546" y2="32.768" gradientUnits="userSpaceOnUse">
<stop stop-color="#FEE50F"/>
<stop offset="0.763927" stop-color="#FF8213"/>
</linearGradient>
</defs>
</svg>
