<svg width="195" height="42" viewBox="0 0 195 42" fill="none" xmlns="http://www.w3.org/2000/svg">
<path d="M57.95 11H71.12L74.33 14.24V21.59L71.09 24.86H62.03V32H57.95V11ZM69.26 21.44L70.31 20.39V15.47L69.26 14.42H62.03V21.44H69.26ZM77.0445 13.94V12.02L78.4245 10.64H80.5245L81.9045 12.02V13.94L80.5245 15.32H78.4245L77.0445 13.94ZM77.4945 17.06H81.4545V32H77.4945V17.06ZM85.3684 10.58H89.3284V22.55H91.9384L95.7484 17.06H100.128L95.1484 24.26L100.428 32H96.0484L91.8484 25.91H89.3284V32H85.3684V10.58ZM101.354 29.24V25.82L104.114 23.06H111.704V21.17L110.774 20.24H106.274L105.374 21.17V22.01H101.474V20.3L104.684 17.06H112.394L115.604 20.3V32H112.034V29.87L109.814 32H104.114L101.354 29.24ZM109.544 28.94L111.704 26.87V25.88H106.064L105.254 26.69V28.19L106.004 28.94H109.544ZM118.76 28.94V20.12L121.79 17.06H130.01L133.1 20.18V22.94H129.14V21.47L128.09 20.42H123.77L122.72 21.47V27.59L123.77 28.64H128.09L129.14 27.59V26.12H133.1V28.88L130.01 32H121.79L118.76 28.94ZM135.788 10.58H139.748V19.37L142.058 17.06H146.828L150.158 20.39V32H146.198V21.47L145.178 20.42H142.598L139.748 23.3V32H135.788V10.58ZM153.451 28.85V17.06H157.411V27.62L158.431 28.64H160.831L163.771 25.7V17.06H167.731V32H164.071V29.45L161.491 32H156.601L153.451 28.85ZM170.725 30.71V28.79L172.015 27.5H174.205L175.465 28.82V30.68L174.205 32H172.015L170.725 30.71ZM192.506 32H188.546V20.42H182.876V32H178.916V20.42H176.216V17.06H178.916V14.15L181.946 11.12H187.586V14.42H183.716L182.876 15.26V17.06H192.506V32Z" fill="url(#paint0_linear_508_1307)"/>
<rect width="42" height="42" rx="21" fill="#FFCC01"/>
<path d="M12.7367 17.4585C12.7367 15.1238 13.4291 12.8415 14.7262 10.9002C16.0233 8.95891 17.8669 7.44586 20.024 6.55239C22.181 5.65892 24.5546 5.42514 26.8444 5.88063C29.1343 6.33612 31.2377 7.46041 32.8887 9.11134C34.5396 10.7623 35.6639 12.8657 36.1194 15.1556C36.5749 17.4454 36.3411 19.819 35.4476 21.976C34.5541 24.1331 33.0411 25.9767 31.0998 27.2738C29.1585 28.5709 26.8762 29.2633 24.5415 29.2633V23.3609C25.7088 23.3609 26.85 23.0147 27.8206 22.3662C28.7913 21.7176 29.5478 20.7958 29.9945 19.7173C30.4413 18.6388 30.5582 17.452 30.3304 16.307C30.1027 15.1621 29.5405 14.1104 28.7151 13.2849C27.8896 12.4595 26.8379 11.8973 25.693 11.6696C24.548 11.4418 23.3612 11.5587 22.2827 12.0055C21.2042 12.4522 20.2824 13.2087 19.6338 14.1794C18.9853 15.15 18.6391 16.2912 18.6391 17.4585H12.7367Z" fill="#0D0D0D"/>
<path d="M15.688 17.4585L15.688 36.3461" stroke="#0D0D0D" stroke-width="5.90237"/>
<path d="M24.5415 26.312L5.65393 26.312" stroke="#0D0D0D" stroke-width="5.90237"/>
<path d="M18.6392 26.4302L12.7368 26.4302" stroke="#FFCC01" stroke-width="5.90237"/>
<defs>
<linearGradient id="paint0_linear_508_1307" x1="98" y1="2" x2="148" y2="109" gradientUnits="userSpaceOnUse">
<stop stop-color="#FFCC01"/>
<stop offset="0.979167" stop-color="#CBB272"/>
</linearGradient>
</defs>
</svg>
