<svg width="42" height="42" viewBox="0 0 42 42" fill="none" xmlns="http://www.w3.org/2000/svg">
<rect width="42" height="42" rx="21" fill="#FFCC01"/>
<path d="M12.7362 17.4585C12.7362 15.1238 13.4286 12.8415 14.7257 10.9002C16.0228 8.95891 17.8665 7.44586 20.0235 6.55239C22.1805 5.65892 24.5541 5.42514 26.844 5.88063C29.1339 6.33612 31.2373 7.46041 32.8882 9.11134C34.5391 10.7623 35.6634 12.8657 36.1189 15.1556C36.5744 17.4454 36.3406 19.819 35.4471 21.976C34.5536 24.1331 33.0406 25.9767 31.0993 27.2738C29.158 28.5709 26.8757 29.2633 24.541 29.2633V23.3609C25.7083 23.3609 26.8495 23.0147 27.8201 22.3662C28.7908 21.7176 29.5473 20.7958 29.994 19.7173C30.4408 18.6388 30.5577 17.452 30.3299 16.307C30.1022 15.1621 29.54 14.1104 28.7146 13.2849C27.8891 12.4595 26.8374 11.8973 25.6925 11.6696C24.5475 11.4418 23.3607 11.5587 22.2822 12.0055C21.2037 12.4522 20.2819 13.2087 19.6333 14.1794C18.9848 15.15 18.6386 16.2912 18.6386 17.4585H12.7362Z" fill="#0D0D0D"/>
<path d="M15.6875 17.4585L15.6875 36.3461" stroke="#0D0D0D" stroke-width="5.90237"/>
<path d="M24.541 26.312L5.65344 26.312" stroke="#0D0D0D" stroke-width="5.90237"/>
<path d="M18.6387 26.4302L12.7363 26.4302" stroke="#FFCC01" stroke-width="5.90237"/>
</svg>
