<svg width="392" height="501" viewBox="0 0 392 501" fill="none" xmlns="http://www.w3.org/2000/svg">
<g filter="url(#filter0_d_169_4218)">
<path d="M165.481 397.009L165.781 397.289C145.521 419.019 125.651 440.089 111.911 454.359C101.481 463.509 85.3112 470.559 70.9112 459.359C59.3012 450.359 56.0112 437.549 56.0812 427.479L165.481 397.009Z" fill="#FF2F13"/>
<path d="M107.731 178.159C107.171 181.329 107.421 185.729 109.851 188.789C112.281 191.849 116.921 193.699 125.601 191.529L184.601 170.039C187.388 169.098 190.293 168.553 193.231 168.419C196.204 168.214 199.178 168.8 201.851 170.119C203.219 170.874 204.404 171.922 205.322 173.187C206.24 174.452 206.868 175.904 207.161 177.439C207.971 181.019 207.651 185.809 205.741 192.159V192.209L158.241 304.209C157.629 305.817 157.229 307.498 157.051 309.209C156.837 310.728 157.077 312.276 157.741 313.659C158.122 314.299 158.666 314.827 159.318 315.189C159.97 315.551 160.706 315.734 161.451 315.719C163.381 315.849 166.071 315.299 169.791 313.719L131 342.5L150.511 389.559L58.4209 414.449C61.2209 408.049 96.9209 325.119 114.421 284.449C118.581 276.449 121.821 259.749 101.421 256.949L38.4209 279.949C30.2509 282.119 15.1209 281.649 19.9209 262.449L38.5909 217.079C53.7409 215.819 88.3209 206.319 107.791 178.079L107.731 178.159Z" fill="url(#paint0_linear_169_4218)"/>
<path d="M366.411 59.3586C411.411 133.359 391.411 215.359 331.411 251.859C295.411 268.859 274.911 274.859 240.411 315.359C227.851 330.099 196.411 364.459 165.781 397.289L165.481 397.009L139.981 350.509L183.481 318.009L223.161 278.319C238.891 259.809 252.381 248.109 266.821 239.079C277.211 232.589 288.231 227.529 298.821 222.669C301.351 221.499 304.031 219.669 306.491 218.509C338.491 197.509 356.491 143.349 328.991 98.0086C318.751 81.1286 289.991 65.0086 266.841 61.5086L266.781 61.8186C255.833 59.9146 244.642 59.8774 233.681 61.7086C216.301 68.1386 174.781 83.1986 153.181 90.6286C148.803 92.0314 144.9 94.6247 141.911 98.1186C140.535 100.178 139.445 102.415 138.671 104.769L107.811 177.969C88.3413 206.189 53.8113 215.689 38.6113 216.969L95.4413 78.8386C97.4413 69.5086 108.141 48.5386 134.941 39.3386C161.741 30.1386 208.101 13.1786 227.941 5.83863C259.071 -0.971365 330.411 0.158638 366.411 59.3586Z" fill="url(#paint1_linear_169_4218)"/>
<path d="M121 146.5C97 173.7 68.1667 175.833 56.5 173.5L38.5 217C73.7 214.2 98 193 108 177.5L121 146.5Z" fill="#C5210E"/>
<path d="M266.831 61.5085C289.981 65.0085 318.741 81.1285 328.981 98.0085C356.481 143.349 338.481 197.509 306.481 218.509C304.021 219.669 301.341 221.509 298.811 222.669C288.241 227.529 277.221 232.589 266.811 239.079C252.371 248.079 238.881 259.809 223.151 278.319L183.461 318.009L151.5 351.5L166.5 396.5C166.5 396.5 87.9999 481.5 86.9999 482.5C85.9999 483.5 83.2396 483.573 81.4999 483C32.2667 466.782 56.8587 418.432 58.3906 414.399L129 387.5L131 342.5L169.761 313.669L169.961 313.589L209.301 273.579C225.051 255.049 238.571 243.309 253.061 234.249C263.481 227.749 274.531 222.669 285.061 217.819L285.261 218.269L292.771 214.799L285.121 217.799C287.621 216.649 290.121 215.509 292.531 214.369C325.961 193.049 345.531 142.369 315.771 93.3685C305.611 76.6285 290.531 67.7886 274.281 63.5486C271.751 62.8886 267.5 61.93 265 61.5L266.831 61.5085Z" fill="#C5210E"/>
</g>
<defs>
<filter id="filter0_d_169_4218" x="0" y="0" width="391.934" height="500.36" filterUnits="userSpaceOnUse" color-interpolation-filters="sRGB">
<feFlood flood-opacity="0" result="BackgroundImageFix"/>
<feColorMatrix in="SourceAlpha" type="matrix" values="0 0 0 0 0 0 0 0 0 0 0 0 0 0 0 0 0 0 127 0" result="hardAlpha"/>
<feOffset dx="-9" dy="7"/>
<feGaussianBlur stdDeviation="5"/>
<feComposite in2="hardAlpha" operator="out"/>
<feColorMatrix type="matrix" values="0 0 0 0 0 0 0 0 0 0 0 0 0 0 0 0 0 0 0.5 0"/>
<feBlend mode="normal" in2="BackgroundImageFix" result="effect1_dropShadow_169_4218"/>
<feBlend mode="normal" in="SourceGraphic" in2="effect1_dropShadow_169_4218" result="shape"/>
</filter>
<linearGradient id="paint0_linear_169_4218" x1="187.274" y1="180.549" x2="-10.6625" y2="376.257" gradientUnits="userSpaceOnUse">
<stop stop-color="#FEE50F"/>
<stop offset="0.763927" stop-color="#FF2F13"/>
</linearGradient>
<linearGradient id="paint1_linear_169_4218" x1="353" y1="22.5" x2="39.0005" y2="384.5" gradientUnits="userSpaceOnUse">
<stop stop-color="#FEE50F"/>
<stop offset="0.763927" stop-color="#FF8213"/>
</linearGradient>
</defs>
</svg>
